# xmcd
#
# Track frame offsets:
# 150
# 63668
# 88551
# 125092
# 147630
# 169265
# 202715
# 229542
# 283612
# 305017
#
# Disc length: 4691 seconds
#
#
# Revision: 0
# Processed by: cddbd v1.5.1PL2 Copyright (c) Steve Scherf et al.
# Submitted via: FreeRIP 2.941 
#
DISCID=9212510a
DTITLE=Ruthless Blues - Live at the Torrington
DYEAR=2006
DGENRE=Blues
TTITLE0=Help Me/Walking Blues
TTITLE1=Little Sister
TTITLE2=Break My Back
TTITLE3=Rolling Drunk
TTITLE4=Bad is Bad
TTITLE5=Killing Floor
TTITLE6=Time me up
TTITLE7=Wang Dang Doodle
TTITLE8=Fine Fine Fine
TTITLE9=Gloria
EXTD=
EXTT0=
EXTT1=
EXTT2=
EXTT3=
EXTT4=
EXTT5=
EXTT6=
EXTT7=
EXTT8=
EXTT9=
PLAYORDER=
